<svg width="28" height="23" viewBox="0 0 28 23" fill="none" xmlns="http://www.w3.org/2000/svg">
<g clip-path="url(#clip0_67_7936)">
<path d="M25.8125 1.19434H1.4375C0.918945 1.19434 0.5 1.61328 0.5 2.13184V20.8818C0.5 21.4004 0.918945 21.8193 1.4375 21.8193H25.8125C26.3311 21.8193 26.75 21.4004 26.75 20.8818V2.13184C26.75 1.61328 26.3311 1.19434 25.8125 1.19434ZM24.6406 4.44043V19.71H2.60938V4.44043L1.80078 3.81055L2.95215 2.33105L4.20605 3.30664H23.0469L24.3008 2.33105L25.4521 3.81055L24.6406 4.44043ZM23.0469 3.30371L13.625 10.6279L4.20312 3.30371L2.94922 2.32812L1.79785 3.80762L2.60645 4.4375L12.6143 12.2188C12.9021 12.4423 13.2561 12.5637 13.6206 12.5637C13.9851 12.5637 14.3391 12.4423 14.627 12.2188L24.6406 4.44043L25.4492 3.81055L24.2979 2.33105L23.0469 3.30371Z" fill="#2091F9"/>
</g>
<defs>
<clipPath id="clip0_67_7936">
<rect width="27" height="22" fill="white" transform="translate(0.5 0.506836)"/>
</clipPath>
</defs>
</svg>
