<svg width="26" height="33" viewBox="0 0 26 33" fill="none" xmlns="http://www.w3.org/2000/svg">
<g clip-path="url(#clip0_67_7924)">
<path d="M13.0013 19.1735C16.4941 19.1735 19.3346 16.333 19.3346 12.8402C19.3346 9.34734 16.4941 6.50684 13.0013 6.50684C9.50847 6.50684 6.66797 9.34734 6.66797 12.8402C6.66797 16.333 9.50847 19.1735 13.0013 19.1735ZM13.0013 9.6735C14.7477 9.6735 16.168 11.0938 16.168 12.8402C16.168 14.5866 14.7477 16.0068 13.0013 16.0068C11.2549 16.0068 9.83464 14.5866 9.83464 12.8402C9.83464 11.0938 11.2549 9.6735 13.0013 9.6735Z" fill="#2091F9"/>
<path d="M11.7485 31.5455C12.0164 31.7369 12.3375 31.8398 12.6668 31.8398C12.9961 31.8398 13.3172 31.7369 13.5851 31.5455C14.0665 31.2051 25.3794 23.0367 25.3335 12.84C25.3335 5.85592 19.6509 0.17334 12.6668 0.17334C5.68272 0.17334 0.000139393 5.85592 0.000139393 12.8321C-0.0457773 23.0367 11.2671 31.2051 11.7485 31.5455ZM12.6668 3.34001C17.9061 3.34001 22.1668 7.60076 22.1668 12.8479C22.2001 19.8748 15.2191 26.1843 12.6668 28.2538C10.1161 26.1828 3.13356 19.8716 3.16681 12.84C3.16681 7.60076 7.42756 3.34001 12.6668 3.34001Z" fill="#2091F9"/>
</g>
<defs>
<clipPath id="clip0_67_7924">
<rect width="26" height="32" fill="white" transform="translate(0 0.00683594)"/>
</clipPath>
</defs>
</svg>
